# xmcd
#
# Track frame offsets:
#	150
#	17695
#	31870
#	49613
#	65883
#	79310
#	93318
#	111365
#	129465
#	145145
#	157818
#	170978
#	186648
#	202180
#	217438
#
# Disc length: 3122 seconds
#
# Revision: 1
# Processed by: cddbd v1.5.1PL0 Copyright (c) Steve Scherf et al.
# Submitted via: CDex 1.50Beta5
#
DISCID=e80c300f
DTITLE=石原裕次郎 - 石原裕次郎 ザ・スーパースター 8
DYEAR=1900
DGENRE=
TTITLE0=星屑のブルース
TTITLE1=石原裕次郎/白樺の風
TTITLE2=石原裕次郎/勝負道
TTITLE3=石原裕次郎/鴨川艶歌
TTITLE4=石原裕次郎/泣かせるぜ
TTITLE5=石原裕次郎/勝負道
TTITLE6=石原裕次郎/二人の世界
TTITLE7=石原裕次郎/雪国の町
TTITLE8=石原裕次郎/青春とはなんだ
TTITLE9=石原裕次郎/海の男だ
TTITLE10=石原裕次郎/ささやきのタンゴ
TTITLE11=石原裕次郎/忘れはしないいつまでも
TTITLE12=石原裕次郎/雪国の町
TTITLE13=石原裕次郎/故郷hw帰る
TTITLE14=石原裕次郎/孤児の歌
EXTD=
EXTT0=
EXTT1=
EXTT2=
EXTT3=
EXTT4=
EXTT5=
EXTT6=
EXTT7=
EXTT8=
EXTT9=
EXTT10=
EXTT11=
EXTT12=
EXTT13=
EXTT14=
PLAYORDER=
